Genre:Adventure | Drama | Fantasy
Language:English
 
http://www.imdb.com/title/tt1324999/

Source::RUSSIAN/BiDA Thanks!

Format : MPEG-4
Format profile : Base Media
Codec ID : isom
File size : 1.25 GiB
Duration : 1h 43mn
Overall bit rate : 1 731 Kbps

Video
ID : 1
Format : AVC
Format/Info : Advanced Video Codec
Format profile : High@L5.1
Format settings, CABAC : Yes
Format settings, ReFrames : 3 frames
Format settings, GOP : M=1, N=2
Codec ID : avc1
Codec ID/Info : Advanced Video Coding
Duration : 1h 43mn
Bit rate mode : Variable
Bit rate : 1 500 Kbps
Maximum bit rate : 8 743 Kbps
Width : 640 pixels
Height : 256 pixels
Display aspect ratio : 2.500
Frame rate mode : Constant
Frame rate : 25.000 fps
Color space : YUV
Chroma subsampling : 4:2:0
Bit depth : 8 bits
Scan type : Progressive
Bits/(Pixel*Frame) : 0.366
Stream size : 1.08 GiB (87%)
Writing library : x264

Audio
ID : 2
Format : AAC
Format/Info : Advanced Audio Codec
Format version : Version 4
Format profile : LC
Format settings, SBR : No
Codec ID : 40
Duration : 1h 43mn
Bit rate mode : Variable
Bit rate : 224 Kbps
Maximum bit rate : 265 Kbps
Channel(s) : 2 channels
Channel positions : Front: L R
Sampling rate : 44.1 KHz
Stream size : 165 MiB (13%)


Plot:
The Quileute and the Volturi close in on expecting parents Edward and Bella, whose unborn child poses different threats to the wolf pack and vampire coven
 
http://img210.imageshack.us/img210/6819/vlcsnap00001y.png
 
http://img191.imageshack.us/img191/2784/vlcsnap00002hq.png
 
http://img834.imageshack.us/img834/1740/vlcsnap00004xy.png